<mxfile host="Electron" modified="2023-04-28T10:42:21.784Z" agent="Mozilla/5.0 (Windows NT 10.0; Win64; x64) AppleWebKit/537.36 (KHTML, like Gecko) draw.io/21.1.2 Chrome/106.0.5249.199 Electron/21.4.3 Safari/537.36" etag="9Q5CCB6zAaw8UpZLSxKD" version="21.1.2" type="device">
  <diagram name="Seite-1" id="I1r4tH1HiN9_0lv4B7Bg">
    <mxGraphModel dx="988" dy="570" grid="1" gridSize="10" guides="1" tooltips="1" connect="1" arrows="1" fold="1" page="1" pageScale="1" pageWidth="827" pageHeight="1169" math="0" shadow="0">
      <root>
        <mxCell id="0" />
        <mxCell id="1" parent="0" />
        <mxCell id="An2jUEhZGsqljUN0XNoE-1" value="" style="rounded=1;whiteSpace=wrap;html=1;" vertex="1" parent="1">
          <mxGeometry x="190" y="50" width="460" height="210" as="geometry" />
        </mxCell>
        <mxCell id="An2jUEhZGsqljUN0XNoE-2" value="&lt;font style=&quot;font-size: 18px;&quot;&gt;Kontextabgrenzung&lt;/font&gt;" style="text;html=1;strokeColor=none;fillColor=none;align=center;verticalAlign=middle;whiteSpace=wrap;rounded=0;rotation=-90;" vertex="1" parent="1">
          <mxGeometry x="90" y="140" width="120" height="30" as="geometry" />
        </mxCell>
        <mxCell id="An2jUEhZGsqljUN0XNoE-10" style="rounded=0;orthogonalLoop=1;jettySize=auto;html=1;startArrow=none;startFill=0;endArrow=open;endFill=0;dashed=1;dashPattern=8 8;" edge="1" parent="1" source="An2jUEhZGsqljUN0XNoE-3" target="An2jUEhZGsqljUN0XNoE-4">
          <mxGeometry relative="1" as="geometry" />
        </mxCell>
        <mxCell id="An2jUEhZGsqljUN0XNoE-11" style="edgeStyle=orthogonalEdgeStyle;rounded=0;orthogonalLoop=1;jettySize=auto;html=1;startArrow=none;startFill=0;dashed=1;dashPattern=8 8;endArrow=open;endFill=0;" edge="1" parent="1" source="An2jUEhZGsqljUN0XNoE-3" target="An2jUEhZGsqljUN0XNoE-5">
          <mxGeometry relative="1" as="geometry" />
        </mxCell>
        <mxCell id="An2jUEhZGsqljUN0XNoE-3" value="System" style="rounded=0;whiteSpace=wrap;html=1;fillColor=#0050ef;fontColor=#ffffff;strokeColor=#001DBC;" vertex="1" parent="1">
          <mxGeometry x="374" y="150" width="80" height="55" as="geometry" />
        </mxCell>
        <mxCell id="An2jUEhZGsqljUN0XNoE-4" value="MariaDB" style="rounded=0;whiteSpace=wrap;html=1;" vertex="1" parent="1">
          <mxGeometry x="220" y="70" width="120" height="60" as="geometry" />
        </mxCell>
        <mxCell id="An2jUEhZGsqljUN0XNoE-5" value="GoogleMail" style="rounded=0;whiteSpace=wrap;html=1;" vertex="1" parent="1">
          <mxGeometry x="510" y="147.5" width="120" height="60" as="geometry" />
        </mxCell>
        <mxCell id="An2jUEhZGsqljUN0XNoE-9" style="edgeStyle=orthogonalEdgeStyle;rounded=0;orthogonalLoop=1;jettySize=auto;html=1;dashed=1;dashPattern=8 8;" edge="1" parent="1" source="An2jUEhZGsqljUN0XNoE-6" target="An2jUEhZGsqljUN0XNoE-3">
          <mxGeometry relative="1" as="geometry" />
        </mxCell>
        <mxCell id="An2jUEhZGsqljUN0XNoE-6" value="Benutzer" style="shape=umlActor;verticalLabelPosition=bottom;verticalAlign=top;html=1;outlineConnect=0;" vertex="1" parent="1">
          <mxGeometry x="250" y="167.5" width="30" height="60" as="geometry" />
        </mxCell>
      </root>
    </mxGraphModel>
  </diagram>
</mxfile>
